# xmcd CD database file
#
# Track frame offsets:
#	150
#	23155
#	52510
#	76380
#	106792
#	125323
#	148541
#	169828
#	199423
#	228222
#	239717
#	262297
#
# Disc length: 3670 seconds
#
# Revision: 0
# Processed by: cddbd v1.5.2PL0 Copyright (c) Steve Scherf et al.
# Submitted via: CDex 1.51
#
DISCID=9e0e540c
DTITLE=Bora Yoon - Proscenium
DYEAR=2003
DGENRE=New Age
TTITLE0=All Day through the Rain
TTITLE1=Nicotine
TTITLE2=Molten Lava
TTITLE3=Poetry vs. Coincidence
TTITLE4=Bend or Break
TTITLE5='Cross the ocean
TTITLE6=Maintain
TTITLE7=No Man's Land
TTITLE8=Foggy London Town
TTITLE9=Allargando
TTITLE10=Prague
TTITLE11=Bonus Track
EXTD=YEAR: 2003
EXTT0=
EXTT1=
EXTT2=
EXTT3=
EXTT4=
EXTT5=
EXTT6=
EXTT7=
EXTT8=
EXTT9=
EXTT10=
EXTT11=
PLAYORDER=
